<svg width="23" height="24" viewBox="0 0 23 24" fill="none" xmlns="http://www.w3.org/2000/svg">
<g clip-path="url(#clip0_373_533)">
<path d="M10.5416 7.20841H12.4583V9.12508H10.5416V7.20841ZM10.5416 11.0417H12.4583V16.7917H10.5416V11.0417ZM11.5 2.41675C6.20996 2.41675 1.91663 6.71008 1.91663 12.0001C1.91663 17.2901 6.20996 21.5834 11.5 21.5834C16.79 21.5834 21.0833 17.2901 21.0833 12.0001C21.0833 6.71008 16.79 2.41675 11.5 2.41675ZM11.5 19.6667C7.27371 19.6667 3.83329 16.2263 3.83329 12.0001C3.83329 7.77383 7.27371 4.33341 11.5 4.33341C15.7262 4.33341 19.1666 7.77383 19.1666 12.0001C19.1666 16.2263 15.7262 19.6667 11.5 19.6667Z" fill="black"/>
</g>
<defs>
<clipPath id="clip0_373_533">
<rect width="23" height="23" fill="white" transform="translate(0 0.5)"/>
</clipPath>
</defs>
</svg>
